<?xml version="1.0" encoding="utf-8"?>
<!-- Generator: Adobe Illustrator 24.3.0, SVG Export Plug-In . SVG Version: 6.00 Build 0)  -->
<svg version="1.1" id="OBJECTS" xmlns="http://www.w3.org/2000/svg" xmlns:xlink="http://www.w3.org/1999/xlink" x="0px" y="0px"
	 viewBox="0 0 750 500" style="enable-background:new 0 0 750 500;" xml:space="preserve">
<style type="text/css">
	.st0{fill:#8EE4FD;}
	.st1{fill:none;stroke:#8EE4FD;stroke-width:1.2336;stroke-miterlimit:10;}
	.st2{fill:#64E4E6;}
	.st3{fill:#2CD0D1;}
	.st4{fill:none;stroke:#0B334C;stroke-width:0.9252;stroke-linecap:round;stroke-linejoin:round;stroke-miterlimit:10;}
	.st5{fill:#FFFFFF;stroke:#1F5B99;stroke-width:1.1536;stroke-miterlimit:10;}
	.st6{fill:#1F5B99;}
	.st7{fill:#00A2DD;}
	.st8{fill:#FCB13A;}
	.st9{fill:#F64652;}
	.st10{fill:none;stroke:#0B334C;stroke-width:1.1536;stroke-miterlimit:10;}
	.st11{fill:#0B334C;}
	.st12{fill:#114D73;}
	.st13{fill:none;stroke:#FFFFFF;stroke-width:0.3084;stroke-linecap:round;stroke-linejoin:round;stroke-miterlimit:10;}
	.st14{fill:#184778;}
	.st15{fill:#FA9778;}
	.st16{fill:none;stroke:#0B334C;stroke-width:0.3084;stroke-linecap:round;stroke-linejoin:round;stroke-miterlimit:10;}
	.st17{fill:none;stroke:#FFFFFF;stroke-width:0.3305;stroke-linecap:round;stroke-linejoin:round;stroke-miterlimit:10;}
	.st18{fill:#FFCBA1;}
	.st19{fill:none;stroke:#0B334C;stroke-width:0.3305;stroke-linecap:round;stroke-linejoin:round;stroke-miterlimit:10;}
	.st20{fill:#FFB285;}
	.st21{fill:#CC6F49;}
	.st22{fill:#FFFFFF;}
	.st23{fill:#C4533A;}
</style>
<g>
	<g>
		<path class="st0" d="M121.92,446c-0.54,0-1.07-0.23-1.36-0.64c-1.8-2.54-3.64-5.23-5.47-8.01c-0.42-0.63-0.14-1.43,0.63-1.77
			c0.77-0.34,1.72-0.11,2.14,0.52c1.81,2.75,3.64,5.42,5.42,7.93c0.44,0.62,0.19,1.42-0.56,1.79
			C122.47,445.95,122.19,446,121.92,446z M685.21,441.02c-0.06,0-0.13,0-0.2-0.01c-0.86-0.09-1.48-0.74-1.37-1.46
			c0.41-2.73,0.95-5.71,1.64-9.11c0.15-0.71,0.96-1.18,1.82-1.07c0.86,0.12,1.44,0.8,1.29,1.51c-0.69,3.36-1.22,6.31-1.62,9
			C686.68,440.54,685.99,441.02,685.21,441.02z M111.32,429.94c-0.57,0-1.13-0.26-1.41-0.71c-1.65-2.66-3.31-5.43-4.94-8.23
			c-0.38-0.65-0.05-1.43,0.73-1.75c0.79-0.31,1.73-0.04,2.11,0.61c1.62,2.78,3.27,5.53,4.91,8.17c0.4,0.64,0.09,1.43-0.69,1.76
			C111.8,429.89,111.56,429.94,111.32,429.94z M688.83,422.96c-0.1,0-0.2-0.01-0.3-0.02c-0.86-0.14-1.42-0.82-1.25-1.53
			c0.68-2.92,1.42-5.93,2.18-8.99c0.18-0.71,1.01-1.16,1.87-1.02c0.85,0.15,1.4,0.84,1.23,1.54c-0.76,3.06-1.49,6.05-2.18,8.96
			C690.23,422.52,689.57,422.96,688.83,422.96z M101.69,413.45c-0.6,0-1.17-0.28-1.44-0.76c-1.52-2.75-3.04-5.57-4.51-8.39
			c-0.35-0.66,0.02-1.43,0.82-1.72c0.8-0.28,1.73,0.02,2.08,0.68c1.46,2.8,2.97,5.61,4.48,8.34c0.36,0.66,0.01,1.43-0.78,1.73
			C102.13,413.41,101.91,413.45,101.69,413.45z M693.29,405.02c-0.11,0-0.22-0.01-0.33-0.03c-0.85-0.15-1.39-0.85-1.21-1.55
			l2.32-8.95c0.18-0.7,1.01-1.16,1.87-1c0.85,0.15,1.39,0.85,1.21,1.55l-2.32,8.95C694.67,404.6,694.02,405.02,693.29,405.02z
			 M92.9,396.65c-0.62,0-1.21-0.31-1.46-0.81c-1.4-2.83-2.78-5.7-4.11-8.53c-0.32-0.67,0.09-1.43,0.9-1.69
			c0.81-0.26,1.73,0.07,2.04,0.75c1.32,2.81,2.7,5.67,4.09,8.48c0.33,0.67-0.05,1.43-0.86,1.71C93.3,396.62,93.1,396.65,92.9,396.65
			z M697.91,387.1c-0.11,0-0.22-0.01-0.33-0.03c-0.85-0.15-1.4-0.84-1.22-1.55c0.77-3.02,1.52-6.01,2.23-8.96
			c0.17-0.71,1-1.17,1.86-1.03c0.86,0.14,1.41,0.83,1.24,1.54c-0.72,2.95-1.46,5.95-2.23,8.98
			C699.29,386.68,698.64,387.1,697.91,387.1z M84.9,379.59c-0.64,0-1.25-0.33-1.48-0.86c-1.27-2.87-2.52-5.78-3.71-8.65
			c-0.28-0.68,0.16-1.43,0.98-1.66c0.82-0.24,1.72,0.13,2.01,0.81c1.19,2.86,2.43,5.75,3.69,8.6c0.3,0.68-0.12,1.43-0.94,1.68
			C85.26,379.56,85.08,379.59,84.9,379.59z M702.23,369.14c-0.09,0-0.19-0.01-0.29-0.02c-0.86-0.13-1.42-0.81-1.27-1.52
			c0.72-3.24,1.34-6.26,1.85-8.99c0.13-0.71,0.94-1.2,1.8-1.09c0.86,0.11,1.45,0.78,1.32,1.49c-0.52,2.79-1.13,5.76-1.86,9.07
			C703.64,368.7,702.98,369.14,702.23,369.14z M77.71,362.27c-0.67,0-1.29-0.35-1.5-0.91c-1.14-2.95-2.25-5.9-3.28-8.78
			c-0.25-0.69,0.23-1.42,1.06-1.62c0.84-0.2,1.71,0.19,1.96,0.88c1.03,2.86,2.12,5.8,3.26,8.73c0.27,0.69-0.19,1.42-1.02,1.64
			C78.03,362.25,77.86,362.27,77.71,362.27z M705.53,351.03c-0.05,0-0.11,0-0.16-0.01c-0.87-0.07-1.5-0.71-1.41-1.43
			c0.22-1.78,0.38-3.45,0.47-4.96c0-1.25-0.04-2.61-0.12-3.98c-0.04-0.72,0.63-1.33,1.5-1.37c0.86-0.05,1.61,0.52,1.65,1.24
			c0.08,1.41,0.12,2.82,0.12,4.18c-0.1,1.62-0.26,3.33-0.49,5.16C707.01,350.53,706.33,351.03,705.53,351.03z M71.41,344.71
			c-0.7,0-1.33-0.38-1.52-0.96c-0.98-2.98-1.91-5.97-2.77-8.9c-0.21-0.7,0.31-1.41,1.16-1.58c0.85-0.17,1.7,0.26,1.91,0.96
			c0.85,2.9,1.78,5.87,2.75,8.83c0.23,0.7-0.27,1.41-1.11,1.6C71.69,344.7,71.55,344.71,71.41,344.71z M704.81,332.79
			c-0.77,0-1.45-0.47-1.56-1.12c-0.5-2.87-1.18-5.86-2.01-8.89c-0.19-0.7,0.34-1.4,1.19-1.56c0.85-0.16,1.7,0.28,1.89,0.98
			c0.85,3.09,1.55,6.15,2.06,9.09c0.12,0.71-0.47,1.38-1.33,1.48C704.96,332.79,704.88,332.79,704.81,332.79z M66.19,326.92
			c-0.73,0-1.38-0.42-1.54-1.04c-0.79-3.05-1.51-6.09-2.14-9.03c-0.15-0.71,0.42-1.39,1.28-1.52c0.87-0.13,1.68,0.35,1.83,1.06
			c0.63,2.91,1.34,5.92,2.12,8.94c0.18,0.71-0.36,1.4-1.21,1.55C66.41,326.91,66.3,326.92,66.19,326.92z M699.94,314.96
			c-0.68,0-1.31-0.37-1.51-0.93c-1.01-2.78-2.17-5.68-3.44-8.62c-0.29-0.68,0.13-1.43,0.95-1.67c0.82-0.25,1.72,0.11,2.02,0.79
			c1.3,2.98,2.47,5.93,3.5,8.75c0.25,0.69-0.22,1.42-1.06,1.63C700.24,314.94,700.09,314.96,699.94,314.96z M62.32,308.9
			c-0.78,0-1.45-0.47-1.56-1.13c-0.53-3.13-0.96-6.2-1.29-9.15c-0.08-0.72,0.56-1.36,1.43-1.42c0.87-0.06,1.64,0.46,1.72,1.18
			c0.33,2.91,0.75,5.95,1.27,9.03c0.12,0.71-0.48,1.37-1.35,1.47C62.47,308.9,62.39,308.9,62.32,308.9z M692.5,297.74
			c-0.62,0-1.21-0.31-1.46-0.81c-0.23-0.46-0.46-0.93-0.69-1.39c-1.23-2.3-2.48-4.63-3.73-6.96c-0.35-0.66,0.01-1.43,0.81-1.72
			c0.8-0.29,1.73,0.01,2.08,0.67c1.24,2.33,2.49,4.65,3.74,6.98c0.25,0.5,0.48,0.97,0.72,1.44c0.33,0.67-0.06,1.43-0.87,1.7
			C692.9,297.71,692.69,297.74,692.5,297.74z M60.32,290.67c-0.85,0-1.55-0.55-1.58-1.26c-0.07-1.7-0.11-3.4-0.11-5.05
			c0-1.42,0.03-2.82,0.08-4.19c0.03-0.72,0.73-1.34,1.63-1.26c0.87,0.02,1.55,0.63,1.52,1.35c-0.06,1.35-0.08,2.72-0.08,4.11
			c0,1.62,0.04,3.28,0.11,4.95c0.03,0.72-0.65,1.33-1.52,1.35C60.36,290.67,60.34,290.67,60.32,290.67z M683.64,280.97
			c-0.61,0-1.19-0.3-1.45-0.79c-1.46-2.81-2.89-5.63-4.28-8.46c-0.33-0.67,0.06-1.43,0.86-1.7c0.81-0.28,1.73,0.05,2.06,0.72
			c1.39,2.82,2.81,5.62,4.26,8.42c0.34,0.66-0.03,1.43-0.83,1.72C684.06,280.94,683.85,280.97,683.64,280.97z M61.4,272.43
			c-0.09,0-0.18-0.01-0.26-0.02c-0.86-0.12-1.44-0.79-1.29-1.51c0.62-3.07,1.49-6.12,2.58-9.07c0.26-0.69,1.14-1.08,1.97-0.87
			c0.83,0.21,1.3,0.94,1.05,1.63c-1.05,2.84-1.89,5.77-2.49,8.73C62.83,271.98,62.16,272.43,61.4,272.43z M675.32,264.02
			c-0.64,0-1.24-0.32-1.48-0.84c-1.38-3.03-2.61-5.85-3.76-8.65c-0.28-0.68,0.16-1.43,0.98-1.66c0.83-0.24,1.72,0.13,2,0.82
			c1.14,2.77,2.36,5.57,3.73,8.57c0.31,0.68-0.1,1.43-0.92,1.69C675.7,263.99,675.51,264.02,675.32,264.02z M67.86,254.99
			c-0.22,0-0.44-0.04-0.66-0.12c-0.79-0.3-1.14-1.08-0.78-1.73c1.54-2.79,3.33-5.54,5.32-8.2c0.46-0.61,1.43-0.8,2.17-0.42
			c0.74,0.38,0.97,1.19,0.51,1.8c-1.92,2.56-3.65,5.22-5.13,7.9C69.03,254.7,68.46,254.99,67.86,254.99z M668.22,246.7
			c-0.68,0-1.31-0.37-1.51-0.94c-1.07-3.01-2.05-6-2.91-8.89c-0.21-0.7,0.31-1.41,1.16-1.58c0.85-0.17,1.7,0.26,1.91,0.96
			c0.84,2.85,1.81,5.8,2.87,8.77c0.25,0.69-0.23,1.42-1.07,1.62C668.52,246.68,668.37,246.7,668.22,246.7z M79.46,239.48
			c-0.35,0-0.69-0.09-0.98-0.29c-0.68-0.45-0.79-1.27-0.25-1.84c2.28-2.36,4.79-4.69,7.46-6.93c0.61-0.51,1.61-0.52,2.23-0.01
			c0.62,0.51,0.63,1.34,0.01,1.85c-2.59,2.17-5.03,4.43-7.24,6.72C80.39,239.31,79.93,239.48,79.46,239.48z M662.99,228.93
			c-0.74,0-1.41-0.44-1.55-1.06c-0.44-1.92-0.84-3.89-1.19-5.83c-0.14-1.19-0.25-2.3-0.32-3.4c-0.05-0.72,0.62-1.34,1.49-1.38
			c0.81-0.05,1.61,0.51,1.66,1.23c0.07,1.06,0.17,2.13,0.3,3.22c0.34,1.85,0.73,3.78,1.16,5.67c0.16,0.71-0.4,1.39-1.26,1.53
			C663.19,228.92,663.09,228.93,662.99,228.93z M95.08,226.58c-0.45,0-0.89-0.16-1.2-0.46c-0.57-0.55-0.49-1.37,0.17-1.84
			c2.79-1.98,5.67-3.95,8.54-5.87c0.68-0.45,1.67-0.37,2.22,0.2c0.55,0.56,0.44,1.39-0.24,1.84c-2.85,1.9-5.7,3.86-8.47,5.82
			C95.81,226.48,95.45,226.58,95.08,226.58z M112.3,215.1c-0.48,0-0.95-0.18-1.26-0.52c-0.53-0.58-0.39-1.4,0.3-1.83
			c2.93-1.84,5.94-3.67,8.94-5.44c0.71-0.42,1.7-0.28,2.2,0.31c0.51,0.59,0.34,1.4-0.37,1.82c-2.98,1.76-5.96,3.57-8.87,5.4
			C112.97,215.01,112.63,215.1,112.3,215.1z M661.5,210.72c-0.02,0-0.05,0-0.07,0c-0.87-0.03-1.55-0.64-1.51-1.36
			c0.16-3.1,0.46-6.11,0.77-9.18c0.07-0.72,0.81-1.25,1.7-1.19c0.87,0.06,1.52,0.69,1.44,1.41c-0.31,3.04-0.59,6.03-0.76,9.07
			C663.04,210.18,662.34,210.72,661.5,210.72z M130.3,204.48c-0.51,0-1.01-0.2-1.31-0.58c-0.49-0.6-0.29-1.41,0.43-1.81
			c3.05-1.69,6.18-3.37,9.31-5c0.74-0.38,1.71-0.2,2.18,0.41c0.46,0.61,0.24,1.42-0.49,1.8c-3.1,1.62-6.21,3.29-9.23,4.96
			C130.9,204.41,130.6,204.48,130.3,204.48z M149,194.73c-0.54,0-1.07-0.23-1.36-0.64c-0.44-0.62-0.19-1.42,0.56-1.79
			c3.16-1.55,6.4-3.08,9.62-4.57c0.76-0.35,1.72-0.12,2.15,0.51c0.42,0.63,0.15,1.43-0.61,1.78c-3.2,1.47-6.41,3-9.55,4.53
			C149.55,194.67,149.27,194.73,149,194.73z M663.11,192.47c-0.03,0-0.06,0-0.09,0c-0.87-0.04-1.54-0.66-1.48-1.38
			c0.18-2.59,0.28-4.91,0.28-7.08l-0.27-1.81c-0.11-0.72,0.5-1.37,1.37-1.46c0.88-0.09,1.66,0.42,1.77,1.13l0.29,1.9
			c0.01,0.05,0.01,0.11,0.01,0.16c0,2.25-0.09,4.64-0.28,7.31C664.63,191.94,663.94,192.47,663.11,192.47z M168.31,185.84
			c-0.57,0-1.12-0.26-1.4-0.7c-0.4-0.64-0.1-1.43,0.67-1.76c3.23-1.4,6.56-2.79,9.89-4.15c0.78-0.32,1.73-0.05,2.11,0.6
			c0.38,0.65,0.06,1.43-0.72,1.75c-3.31,1.35-6.61,2.73-9.82,4.12C168.8,185.79,168.55,185.84,168.31,185.84z M188.14,177.77
			c-0.6,0-1.17-0.28-1.43-0.76c-0.37-0.66-0.02-1.43,0.77-1.73c2.58-0.99,5.17-1.95,7.77-2.9l1.38-1.15c0.62-0.51,1.62-0.51,2.23,0
			c0.62,0.51,0.62,1.34,0,1.85l-1.59,1.32c-0.14,0.11-0.3,0.21-0.48,0.27c-2.68,0.98-5.34,1.97-7.99,2.98
			C188.58,177.74,188.36,177.77,188.14,177.77z M661.39,174.31c-0.73,0-1.39-0.43-1.54-1.04c-0.8-3.22-1.78-6.01-3.01-8.55
			c-0.32-0.67,0.07-1.43,0.88-1.7c0.81-0.27,1.73,0.06,2.05,0.73c1.3,2.68,2.33,5.62,3.17,9c0.18,0.71-0.38,1.4-1.23,1.54
			C661.6,174.3,661.49,174.31,661.39,174.31z M206.61,168.12c-0.54,0-1.07-0.23-1.36-0.64c-0.44-0.62-0.19-1.42,0.56-1.79
			c3.71-1.81,6.63-3.35,9.2-4.86c0.71-0.42,1.7-0.28,2.2,0.31c0.5,0.59,0.33,1.41-0.38,1.82c-2.64,1.55-5.64,3.13-9.42,4.98
			C207.16,168.07,206.88,168.12,206.61,168.12z M653.01,157.53c-0.49,0-0.97-0.19-1.28-0.54c-0.68-0.77-1.4-1.54-2.17-2.28
			c-1.6-1.52-3.28-3.01-4.97-4.43c-0.61-0.51-0.61-1.34,0.02-1.85c0.62-0.51,1.62-0.5,2.23,0.01c1.73,1.46,3.45,2.99,5.11,4.56
			c0.83,0.8,1.61,1.62,2.34,2.46c0.51,0.58,0.35,1.4-0.35,1.82C653.65,157.45,653.33,157.53,653.01,157.53z M224.46,157.41
			c-0.41,0-0.82-0.13-1.13-0.4c-0.61-0.52-0.59-1.35,0.03-1.85c2.37-1.9,4.41-3.86,6.24-5.98c0.05-0.06,0.11-0.11,0.17-0.16
			c0.31-0.25,0.61-0.5,0.92-0.73c0.64-0.49,1.64-0.45,2.23,0.08c0.59,0.53,0.54,1.36-0.1,1.85c-0.24,0.18-0.48,0.38-0.73,0.57
			c-1.92,2.22-4.06,4.26-6.53,6.25C225.25,157.29,224.85,157.41,224.46,157.41z M240.29,144.77c-0.4,0-0.81-0.13-1.12-0.38
			c-0.62-0.51-0.62-1.34,0-1.85l0.06-0.05c2.03-2.04,4.28-4.35,6.76-6.95c0.54-0.57,1.53-0.66,2.22-0.21
			c0.68,0.45,0.8,1.27,0.26,1.84c-2.5,2.62-4.76,4.93-6.91,7.08c-0.03,0.03-0.13,0.12-0.17,0.15
			C241.1,144.64,240.69,144.77,240.29,144.77z M637.61,144.46c-0.36,0-0.72-0.1-1.02-0.31c-2.74-1.91-5.65-3.76-8.65-5.49
			c-0.72-0.41-0.89-1.23-0.39-1.82c0.5-0.59,1.48-0.74,2.2-0.33c3.08,1.77,6.07,3.67,8.88,5.63c0.67,0.46,0.75,1.29,0.19,1.84
			C638.5,144.31,638.06,144.46,637.61,144.46z M619.51,134c-0.27,0-0.54-0.06-0.79-0.18c-2.59-1.24-5.32-2.46-8.13-3.62
			c-0.44-0.16-0.96-0.34-1.48-0.52c-0.8-0.28-1.18-1.05-0.84-1.71c0.34-0.67,1.27-0.97,2.07-0.7c0.53,0.19,1.06,0.37,1.59,0.56
			c2.94,1.22,5.74,2.46,8.38,3.73c0.76,0.36,1.01,1.16,0.58,1.79C620.59,133.77,620.06,134,619.51,134z M254.05,130.45
			c-0.34,0-0.68-0.09-0.97-0.27c-0.69-0.44-0.81-1.26-0.28-1.83l2.43-2.59c1.45-1.55,2.9-3.1,4.35-4.64
			c0.54-0.57,1.53-0.67,2.22-0.23c0.69,0.44,0.81,1.27,0.28,1.83c-1.45,1.54-2.9,3.09-4.35,4.64l-2.43,2.59
			C254.99,130.27,254.52,130.45,254.05,130.45z M599.42,126.49c-0.17,0-0.35-0.02-0.52-0.07c-3.34-0.97-6.85-1.9-10.44-2.77
			c-0.84-0.2-1.32-0.93-1.07-1.62c0.25-0.69,1.12-1.09,1.96-0.89c3.63,0.88,7.2,1.82,10.6,2.81c0.82,0.24,1.25,0.98,0.97,1.67
			C600.68,126.15,600.07,126.49,599.42,126.49z M578.23,121.33c-0.12,0-0.25-0.01-0.38-0.04c-3.39-0.69-6.9-1.35-10.72-2.01
			c-0.85-0.15-1.4-0.84-1.22-1.55c0.18-0.71,1.02-1.16,1.87-1.01c3.86,0.67,7.4,1.34,10.83,2.03c0.85,0.17,1.36,0.88,1.16,1.58
			C579.59,120.94,578.94,121.33,578.23,121.33z M556.62,117.54c-0.1,0-0.19-0.01-0.29-0.02c-3.6-0.56-7.22-1.09-10.86-1.61
			c-0.86-0.12-1.43-0.8-1.29-1.51c0.15-0.71,0.97-1.18,1.83-1.06c3.65,0.52,7.28,1.06,10.9,1.62c0.86,0.13,1.42,0.81,1.26,1.52
			C558.03,117.1,557.36,117.54,556.62,117.54z M267.68,116.02c-0.35,0-0.69-0.09-0.99-0.29c-0.68-0.45-0.79-1.27-0.25-1.84
			c2.53-2.62,4.83-4.94,7.04-7.11c0.56-0.55,1.56-0.62,2.22-0.16c0.67,0.47,0.75,1.29,0.19,1.84c-2.19,2.15-4.47,4.45-6.99,7.05
			C268.6,115.86,268.14,116.02,267.68,116.02z M534.84,114.38c-0.09,0-0.18-0.01-0.27-0.02c-3.63-0.51-7.26-1.03-10.9-1.56
			c-0.86-0.13-1.43-0.8-1.28-1.52c0.15-0.71,0.95-1.19,1.83-1.06c3.63,0.53,7.26,1.05,10.88,1.56c0.86,0.12,1.44,0.8,1.29,1.51
			C536.27,113.93,535.6,114.38,534.84,114.38z M513.09,111.15c-0.1,0-0.2-0.01-0.3-0.02c-3.89-0.63-7.44-1.23-10.86-1.86
			c-0.85-0.16-1.39-0.85-1.2-1.56c0.19-0.7,1.02-1.15,1.88-0.99c3.4,0.62,6.92,1.22,10.78,1.85c0.86,0.14,1.42,0.82,1.25,1.53
			C514.49,110.72,513.83,111.15,513.09,111.15z M491.44,107.49c-0.09,0-0.19-0.01-0.29-0.02c-3.62-0.55-7.29-1.24-10.9-2.07
			c-0.84-0.19-1.33-0.91-1.1-1.61c0.23-0.7,1.11-1.1,1.94-0.91c3.53,0.8,7.1,1.48,10.63,2.02c0.86,0.13,1.43,0.81,1.27,1.52
			C492.85,107.05,492.18,107.49,491.44,107.49z M470.15,102.66c-0.18,0-0.36-0.03-0.54-0.08c-2.43-0.74-4.89-1.55-7.31-2.41
			c-1.02-0.37-2.02-0.74-3.02-1.12c-0.79-0.3-1.14-1.08-0.78-1.73c0.36-0.65,1.29-0.95,2.09-0.64c0.99,0.37,1.97,0.74,2.96,1.1
			c2.35,0.84,4.76,1.63,7.14,2.35c0.82,0.25,1.24,1,0.94,1.68C471.4,102.33,470.79,102.66,470.15,102.66z M281.98,102.06
			c-0.38,0-0.76-0.11-1.06-0.34c-0.64-0.49-0.69-1.31-0.1-1.85c2.65-2.4,5.18-4.58,7.72-6.65c0.62-0.51,1.62-0.5,2.23,0.02
			c0.61,0.51,0.6,1.34-0.02,1.85c-2.5,2.04-4.99,4.18-7.6,6.55C282.83,101.92,282.41,102.06,281.98,102.06z M449.98,95.18
			c-0.24,0-0.48-0.04-0.71-0.14c-3.29-1.37-6.57-2.79-9.85-4.22c-0.77-0.34-1.07-1.13-0.66-1.77c0.41-0.64,1.36-0.88,2.13-0.55
			c3.26,1.43,6.53,2.83,9.79,4.2c0.78,0.32,1.09,1.11,0.7,1.76C451.11,94.92,450.55,95.18,449.98,95.18z M297.77,89.27
			c-0.45,0-0.89-0.16-1.2-0.46c-0.57-0.55-0.49-1.37,0.17-1.84c2.9-2.06,5.85-3.98,8.78-5.72c0.71-0.42,1.69-0.29,2.2,0.3
			c0.51,0.59,0.35,1.4-0.36,1.82c-2.85,1.7-5.74,3.58-8.57,5.59C298.5,89.17,298.14,89.27,297.77,89.27z M430.39,86.69
			c-0.25,0-0.5-0.05-0.74-0.15c-3.25-1.42-6.51-2.83-9.79-4.21c-0.78-0.33-1.09-1.11-0.69-1.76c0.39-0.64,1.34-0.9,2.12-0.58
			c3.29,1.38,6.56,2.8,9.83,4.23c0.77,0.34,1.07,1.13,0.66,1.77C431.5,86.44,430.95,86.69,430.39,86.69z M315.7,78.63
			c-0.54,0-1.07-0.23-1.37-0.65c-0.44-0.62-0.18-1.42,0.57-1.79c3.25-1.56,6.6-2.99,9.97-4.24c0.79-0.29,1.73,0,2.09,0.66
			c0.36,0.66,0,1.43-0.8,1.73c-3.26,1.21-6.52,2.59-9.67,4.11C316.25,78.57,315.97,78.63,315.7,78.63z M410.65,78.47
			c-0.22,0-0.45-0.04-0.66-0.12c-3.55-1.36-6.84-2.54-10.06-3.61c-0.81-0.27-1.2-1.03-0.88-1.7c0.32-0.67,1.24-1,2.05-0.73
			c3.27,1.08,6.61,2.28,10.21,3.66c0.79,0.3,1.13,1.08,0.77,1.74C411.81,78.19,411.24,78.47,410.65,78.47z M390.12,71.76
			c-0.16,0-0.32-0.02-0.47-0.06c-3.58-0.93-7.12-1.7-10.53-2.29c-0.85-0.15-1.4-0.84-1.22-1.55c0.18-0.71,1.02-1.16,1.87-1.01
			c3.51,0.61,7.15,1.4,10.82,2.36c0.83,0.22,1.29,0.95,1.03,1.64C391.41,71.4,390.79,71.76,390.12,71.76z M335.83,71.19
			c-0.67,0-1.29-0.35-1.5-0.91c-0.27-0.69,0.19-1.42,1.02-1.64c1.32-0.35,2.67-0.68,4.03-0.99c2.28-0.52,4.58-0.96,6.86-1.31
			c0.85-0.14,1.68,0.34,1.84,1.05c0.16,0.71-0.41,1.39-1.26,1.52c-2.19,0.34-4.41,0.76-6.6,1.26c-1.32,0.3-2.62,0.62-3.91,0.96
			C336.15,71.17,335.99,71.19,335.83,71.19z M368.53,68.08c-0.05,0-0.09,0-0.14-0.01c-3.63-0.27-7.22-0.34-10.82-0.2
			c-0.91,0.01-1.61-0.53-1.65-1.25c-0.04-0.72,0.63-1.33,1.5-1.37c3.75-0.14,7.48-0.07,11.25,0.21c0.87,0.06,1.51,0.7,1.43,1.42
			C370.03,67.56,369.34,68.08,368.53,68.08z"/>
	</g>
	<g>
		<path class="st0" d="M46.2,232.95c0,3.25-3.18,5.88-7.1,5.88c-3.92,0-7.1-2.63-7.1-5.88c0-3.25,3.18-5.88,7.1-5.88
			C43.02,227.06,46.2,229.7,46.2,232.95z"/>
		<g>
			<ellipse class="st0" cx="697.32" cy="168.9" rx="18.15" ry="15.03"/>
			<ellipse class="st1" cx="692.59" cy="146.68" rx="19.73" ry="16.34"/>
		</g>
		<ellipse class="st1" cx="66.72" cy="200.92" rx="7.89" ry="6.54"/>
		<ellipse class="st1" cx="694.17" cy="242.1" rx="8.68" ry="7.19"/>
	</g>
</g>
<g>
	<g>
		<path class="st2" d="M534.74,163.67c0,0-3.95-76.47-32.36-95.42C473.97,49.3,500.01,149.29,534.74,163.67z"/>
		<g>
			<path class="st3" d="M526.6,153.63c-8.66-9.98-11.78-23.13-8.33-35.08c0.76-2.64,1.94-5.36,4.44-7.11
				c2.75-1.93,6.68-2.35,10.22-1.81c3.54,0.54,6.8,1.93,10,3.3c-1.2-5.99-0.98-12.47-0.95-18.55c0.03-5.08,0.55-10.34,3.49-14.8
				c2.94-4.46,8.87-7.9,14.95-7.21c6.97,0.79,11.49,6.32,15.1,11.32c2-7.99,7.04-15.96,13.53-22.1c6.08-5.75,15.29-10.49,24.16-8.39
				c7.46,1.77,12.37,8.08,13.33,14.46c0.96,6.37-1.34,12.78-4.26,18.73c-3.19,6.48-7.16,12.7-11.84,18.53
				c5.46-0.49,13.1,0.03,16.44,3.64c2.4,2.6,2.67,6.21,1.7,9.39c-1.5,4.95-5.65,9.13-10.55,12.21c-4.9,3.09-10.57,5.22-16.19,7.33
				c8.17,2.75,12.85,11.47,9.37,18.18c-2.05,3.95-6.2,6.88-10.6,9.16c-11.84,6.14-26.51,8.43-40.24,6.31
				C546.63,169,534.75,163.03,526.6,153.63z"/>
			<g>
				<line class="st4" x1="612.61" y1="56.05" x2="551.84" y2="158.22"/>
				<line class="st4" x1="557.1" y1="74.35" x2="580.78" y2="109.21"/>
				<line class="st4" x1="549.21" y1="78.49" x2="576.83" y2="116.18"/>
				<line class="st4" x1="605.51" y1="130.99" x2="568.15" y2="131.43"/>
			</g>
		</g>
		<g>
			<path class="st3" d="M541.68,158.78c0,0-42.71-58.42-74.76-63.15C434.86,90.91,507.06,159.88,541.68,158.78z"/>
			<line class="st4" x1="465.81" y1="100.28" x2="514.75" y2="139.71"/>
		</g>
	</g>
	<g>
		<g>
			<path class="st2" d="M141.44,425.09c0,0-49.99-87.58-7.37-108.05c42.62-20.48,14.73,108.49,14.73,108.49L141.44,425.09z"/>
			<g>
				<path class="st3" d="M139.86,415.94c0,0-27.36-66.66-49.99-66.66c-22.63,0-5.79,35.29,43.67,68.4L139.86,415.94z"/>
				<line class="st4" x1="85.27" y1="353.85" x2="121.97" y2="400.91"/>
			</g>
		</g>
		<path class="st3" d="M86.98,446c0,0-17.1-13.51-9.47-25.92c7.63-12.42,29.73-8.5,29.73-8.5s-9.73-16.99,7.63-24.62
			c17.36-7.62,31.57,11.55,31.57,11.55s9.47-22,47.62-21.35c38.15,0.65,35.78,34.42,35.78,34.42s9.47-7.19,21.57-0.65
			c12.1,6.54,0,18.95,0,18.95s11.84,2.83,11.05,15.9L86.98,446z"/>
	</g>
</g>
<g>
	<g>
		<path class="st5" d="M569.12,350.15H140.47V132.01c0-4.41,3.57-7.98,7.98-7.98h412.68c4.41,0,7.98,3.57,7.98,7.98V350.15z"/>
		<path class="st6" d="M569.12,141.01H140.47v-9.01c0-4.41,3.57-7.98,7.98-7.98h412.68c4.41,0,7.98,3.57,7.98,7.98V141.01z"/>
	</g>
	<g>
		<ellipse class="st7" cx="455.82" cy="247.71" rx="10.26" ry="8.5"/>
		<ellipse class="st8" cx="489.49" cy="247.71" rx="10.26" ry="8.5"/>
		<ellipse class="st9" cx="523.16" cy="247.71" rx="10.26" ry="8.5"/>
	</g>
	<g>
		<g>
			<rect x="273.58" y="161.48" class="st10" width="155.21" height="165.59"/>
			<rect x="422.96" y="239.49" class="st5" width="11.55" height="9.56"/>
			<rect x="422.96" y="322.29" class="st5" width="11.55" height="9.56"/>
			<rect x="422.96" y="157" class="st5" width="11.55" height="9.56"/>
			<rect x="267.75" y="157" class="st5" width="11.55" height="9.56"/>
			<rect x="267.21" y="239.49" class="st5" width="11.55" height="9.56"/>
			<rect x="267.21" y="321.69" class="st5" width="11.55" height="9.56"/>
			
				<rect x="346.4" y="156.3" transform="matrix(6.123234e-17 -1 1 6.123234e-17 189.1075 513.267)" class="st5" width="9.56" height="11.55"/>
			
				<rect x="346.4" y="319.5" transform="matrix(6.123234e-17 -1 1 6.123234e-17 25.9127 676.4618)" class="st5" width="9.56" height="11.55"/>
		</g>
		<g>
			<g>
				<path class="st8" d="M403.38,220.06c0-23.55-22.61-42.74-50.84-43.47c-29.18-0.76-54.06,19.07-54.21,43.24
					c-0.08,11.8,5.52,22.5,14.66,30.37c8.51,7.33,13.54,16.95,13.54,27.12v1.71h48.65v-1.7c0-10.01,4.66-19.66,13.13-26.79
					C397.63,242.7,403.38,231.94,403.38,220.06z"/>
				<path class="st11" d="M365.43,312.28h-29.15c-5.32,0-9.63-4.31-9.63-9.63V278.5h48.41v24.14
					C375.06,307.97,370.75,312.28,365.43,312.28z"/>
				<path class="st12" d="M373.01,299.51l-45.9-7.7c-1.87-0.31-3.22-1.68-3.22-3.26v0c0-2.1,2.32-3.67,4.81-3.26l45.9,7.7
					c1.87,0.31,3.22,1.68,3.22,3.26l0,0C377.82,298.35,375.5,299.92,373.01,299.51z"/>
				<path class="st11" d="M373.01,292.72l-45.9-7.7c-1.87-0.31-3.22-1.68-3.22-3.26l0,0c0-2.1,2.32-3.67,4.81-3.26l45.9,7.7
					c1.87,0.31,3.22,1.68,3.22,3.26l0,0C377.82,291.57,375.5,293.14,373.01,292.72z"/>
				<path class="st11" d="M373.01,306.29l-45.9-7.7c-1.87-0.31-3.22-1.68-3.22-3.26l0,0c0-2.1,2.32-3.67,4.81-3.26l45.9,7.7
					c1.87,0.31,3.22,1.68,3.22,3.26l0,0C377.82,305.13,375.5,306.71,373.01,306.29z"/>
				<g>
					<g>
						<path class="st11" d="M356.29,282.39l-2.71-0.29c2.31-14.92,5.1-29.94,8.31-44.82c-3.14,1.54-6.86,2.58-11.02,3.05
							c-2.94,0.33-6.73,0.44-10.54-0.37c5.08,12.83,8.6,26.09,10.48,39.51l-2.71,0.26c-1.93-13.84-5.63-27.51-11.02-40.7
							c-0.91-0.34-1.82-0.74-2.69-1.22c-2.91-1.6-5.19-4.06-6.26-6.77c-0.59-1.5,0.2-3.02,1.94-3.7c1.74-0.68,3.67-0.22,4.69,1.13
							c1.41,1.85,2.4,3.92,3.25,5.89c0.43,0.98,0.85,1.96,1.25,2.95c3.24,0.97,7.1,1.25,11.25,0.78c3.22-0.36,8.01-1.33,12.06-3.86
							c0.79-3.59,1.6-7.17,2.44-10.73c0.19-0.83,0.46-1.96,1.4-2.82c0.64-0.59,1.58-0.96,2.53-0.98c0.79-0.03,1.55,0.21,2.1,0.65
							c0.74,0.6,0.93,1.4,1,2.03c0.27,2.22-0.02,4.24-0.84,6.01c-1.29,2.76-3.38,5.14-6.11,7.04
							C361.66,251,358.71,266.75,356.29,282.39z M331.68,229.3c-0.2,0-0.38,0.06-0.46,0.09c-0.23,0.09-0.74,0.36-0.5,0.95
							c0.86,2.18,2.69,4.18,5.02,5.5c-0.1-0.23-0.2-0.47-0.31-0.7c-0.81-1.85-1.73-3.79-2.99-5.46
							C332.21,229.38,331.92,229.3,331.68,229.3z M369.04,221.95c-0.15,0-0.43,0.07-0.62,0.24c-0.4,0.37-0.57,0.98-0.75,1.75
							c-0.59,2.52-1.17,5.04-1.74,7.57c1.07-1.12,1.99-2.42,2.7-3.94c0.67-1.44,0.9-3.11,0.67-4.97c-0.06-0.49-0.16-0.61-0.19-0.63
							C369.1,221.95,369.07,221.95,369.04,221.95z"/>
					</g>
				</g>
			</g>
			<g>
				<line class="st13" x1="329.54" y1="278.42" x2="375.05" y2="286.37"/>
				<line class="st13" x1="326.77" y1="298.36" x2="373.34" y2="306.53"/>
			</g>
		</g>
	</g>
</g>
<g>
	<g>
		<path class="st11" d="M267.03,363.76h-19.78c-1.33,0-2.4-1.08-2.4-2.4v-19.02c0-1.28,1.04-2.32,2.32-2.32h19.94
			c1.28,0,2.32,1.04,2.32,2.32v19.02C269.43,362.69,268.36,363.76,267.03,363.76z"/>
		<rect x="244.85" y="346.97" class="st8" width="14.34" height="11.02"/>
		<path class="st8" d="M244.52,340.91v0.54c0,0.53,0.5,0.97,1.14,0.99c0.7,0.02,1.41,0.09,1.98,0.35c1.28,0.58,2.15,1.72,3.54,2.1
			c1.4,0.38,2.93-0.12,4.16-0.8c1.52-0.84,2.84-1.97,4.72-2.27c0.84-0.13,1.72-0.05,2.43,0.35c1.47,0.83,1.24,2.29,1.3,3.58
			c0.04,0.81,0.21,1.61,0.52,2.37c0.26,0.64,0.63,1.29,1.3,1.68s1.7,0.41,2.23-0.1c0.32-0.3,0.41-0.72,0.46-1.12
			c0.14-1,0.15-2.02,0.03-3.02c-0.07-0.55-0.18-1.11-0.04-1.66c0.1-0.38,0.36-0.75,0.74-0.97c0.33-0.19,0.54-0.49,0.54-0.82v-1.19
			c0-0.7-0.69-1.27-1.54-1.27h-21.97C245.21,339.64,244.52,340.21,244.52,340.91z"/>
	</g>
	<g>
		<g>
			<g>
				<rect x="122.11" y="363.64" class="st14" width="9.47" height="82.24"/>
				<rect x="86.87" y="363.64" class="st6" width="9.47" height="82.24"/>
			</g>
			<g>
				<rect x="232.44" y="363.64" class="st14" width="9.47" height="82.24"/>
				<rect x="267.69" y="363.64" class="st6" width="9.47" height="82.24"/>
			</g>
			<rect x="87.11" y="363.66" class="st6" width="190.04" height="7.84"/>
		</g>
	</g>
	<g>
		<g>
			<g>
				<g>
					<g>
						<path class="st15" d="M237.31,300.72c-2.79-1.18-4.01-0.6-9.42-1.58c-0.81-0.15-1.83-0.29-2.98-0.44
							c-1.57,5.22-3.35,10.4-4.49,15.72c-0.1,0.48-0.19,0.97-0.28,1.46c2.95-0.16,5.9-0.3,8.85-0.39c-2.51,13.72-5.8,30.25-8.18,44
							c1.8,0.24,2.98,1.28,5.03,0.65c6.12-8.94,15.95-34.37,17.77-41.31c1.83-6.94,1.77-5.32,1.81-7.47
							C245.56,303.85,244.48,303.75,237.31,300.72z"/>
					</g>
					<line class="st16" x1="229.4" y1="314.31" x2="229.01" y2="315.62"/>
				</g>
				<path class="st6" d="M226.4,359.13c0,0-3.22,1.76-5.65,0l-0.51,1.17c-0.45,1.02-0.68,2.1-0.68,3.18l0,0.33l16.89,0.01l0,0
					c0-1.01-0.76-1.91-1.91-2.25L226.4,359.13z"/>
			</g>
			<g>
				<g>
					<path class="st15" d="M173.79,346.76c-2.83-0.31-5.63-0.62-8.38-1.03c0.11,1.27,0.23,2.54,0.36,3.77
						c-19.42-1.14-49.06,2.58-55.14,3.39c-0.73,0.09-1.12,0.14-1.12,0.14l-0.52,4.34l1.58,0.17l57.01,6.03l5.32,0.56
						c7.62,0.8,14.55-3.74,15.35-10.07l0.67-5.33l0.06-0.45C183.92,347.92,178.87,347.32,173.79,346.76z"/>
					<path class="st16" d="M165.87,349.6c0,0,4.44,0.98,5.03,1.39"/>
				</g>
				<path class="st6" d="M110.62,357.44c0,0-2.06-2.7,0.12-4.67l-1.4-0.45c-1.22-0.39-2.52-0.61-3.82-0.63l-0.4-0.01l-0.37,13.98
					l0,0c1.22,0.02,2.32-0.59,2.76-1.53L110.62,357.44z"/>
			</g>
			<g>
				<path class="st9" d="M170.64,296.56c0,0-6.05,13.29-6.05,17.86c0,4.57,0,32.9,0,32.9l24.2,2.18l7.63-30.93l29.99-1.52
					l4.21-19.61l-23.6-3.2L170.64,296.56z"/>
				<g>
					<line class="st16" x1="198.06" y1="308.1" x2="196.48" y2="318.34"/>
					<line class="st16" x1="227.92" y1="297.32" x2="223.78" y2="316.36"/>
					<line class="st16" x1="165.28" y1="344.95" x2="188.46" y2="347.15"/>
					<line class="st16" x1="196.95" y1="316.03" x2="223.88" y2="315.05"/>
					<path class="st16" d="M171.99,299.2c0,0-4.83,10.7-4.83,15.69c0,4.98-0.1,30.23-0.1,30.23"/>
					<line class="st16" x1="178" y1="299.12" x2="168.93" y2="307.37"/>
				</g>
			</g>
		</g>
		<g>
			<g>
				<path class="st15" d="M246.43,266.94c-0.96-1.11-2.81-1.4-4.17-0.65c-0.03,0.01-0.06,0.04-0.09,0.05l-0.08,0.05
					c-2.95,1.74-6.01,3.5-9.08,5.16c-3.08,1.67-6.17,3.31-9.31,4.88c-4.8,2.39-9.68,4.67-14.62,6.64c-0.46-1.06-0.88-2.13-1.29-3.2
					c-0.95-2.48-1.82-4.98-2.64-7.49c-0.78,0.36-1.54,0.71-2.23,0.97c-3.32,1.26-6.64,2.44-10.12,3.21c0.87,2.3,1.8,4.58,2.84,6.84
					c0.57,1.22,1.17,2.43,1.78,3.65c0.88,1.76,1.83,3.52,2.83,5.25l0.02,0.04c1.24,2.05,4.27,2.92,6.75,1.9
					c0.82-0.34,1.64-0.69,2.45-1.06c1.2-0.54,2.4-1.08,3.57-1.66c2.21-1.05,4.37-2.16,6.46-3.32c1.63-0.88,3.19-1.8,4.75-2.71
					c1.55-0.94,3.09-1.88,4.61-2.85c6-3.83,11.63-7.87,17.05-12.27c0.06-0.05,0.13-0.1,0.19-0.16
					C247.12,269.35,247.31,267.96,246.43,266.94z"/>
				<path class="st15" d="M241.97,266.9c0,0,2.01-4.53,2.88-4.48c0.87,0.05,0.87,2.41,0.87,2.41s5-3.31,5.65-2.94
					c0.65,0.36-3.17,3.26-3.17,3.26s3.68-1.83,4.39-1.4c0.7,0.43-3.93,2.88-3.93,2.88s4.17-1.11,4.51-0.38
					c0.35,0.73-4.76,1.85-4.76,1.85s3.1-0.23,3.23,0.32c0.13,0.55-6.7,2.18-6.7,2.18L241.97,266.9z"/>
				<path class="st6" d="M193.79,280.08c0,0-8.68-17.24-2.27-20.75c6.41-3.51,10.85,2.29,11.25,3.84
					c0.39,1.55,4.24,13.97,4.24,13.97L193.79,280.08z"/>
			</g>
			<g>
				<path class="st15" d="M192.88,254.76v-10.1h-9.59v10.1c0,1.22-1.19,2.2-2.66,2.2l0,0c10.87,13.1,14.99,0,14.99,0h-0.09
					C194.07,256.96,192.88,255.98,192.88,254.76z"/>
				<path class="st11" d="M192.89,251.03v1.67c-0.47,0.03-0.93,0.01-1.4-0.07c-2.07-0.33-5.02-1.12-6.85-2.99
					c-0.44-0.45-0.9-1.09-1.34-1.86v-0.26c0.16,0.21,0.32,0.4,0.48,0.56c1.83,1.87,4.78,2.66,6.85,2.99
					C191.39,251.21,192.16,251.18,192.89,251.03z"/>
			</g>
			<g>
				<path class="st6" d="M202.6,260.72c-1.04-1.16-3.18-2.42-5.18-3.43l0.7-0.49l-5.13-1.52l-2.63,6.97l-7.07-7.48l-5.16,1.27
					l0.79,0.4c-2.54,0.41-8.47,2.13-8.96,8.13c-0.48,5.89-1.24,30.79-1.37,34.92c-0.01,0.31,0.31,0.55,0.68,0.52l25.83-2.36
					l2.1-2.18l2.89,2.4l11.77-3C211.87,294.86,204.84,263.23,202.6,260.72z"/>
				<g>
					<polyline class="st16" points="190.38,264.68 190.38,262.23 178.79,256.39 					"/>
					<line class="st16" x1="197.34" y1="257.41" x2="190.38" y2="262.23"/>
					<rect x="196.5" y="268.12" class="st16" width="6.86" height="1.1"/>
					<line class="st16" x1="197.34" y1="295.36" x2="197.34" y2="286.65"/>
				</g>
			</g>
			<g>
				<g>
					<g>
						<path class="st6" d="M249.21,268.84l3.05-1.04c0.1-0.03,0.15-0.13,0.11-0.21l-4.39-8.81c-0.04-0.08-0.15-0.12-0.25-0.09
							l-3.05,1.04c-0.1,0.03-0.15,0.13-0.11,0.21l4.39,8.8C249,268.84,249.11,268.88,249.21,268.84z"/>
						<g>
							<path class="st6" d="M247.15,262.38l-3.25-6.52l-8.27,2.83c-1.18,0.4-2.54-0.07-3.02-1.04l-2.21-4.43
								c-0.24-0.47-0.23-0.99,0-1.47c0.24-0.47,0.68-0.84,1.25-1.04l8.56-2.93l0.48,0.97l-8.56,2.93c-0.26,0.09-0.46,0.26-0.57,0.47
								c-0.11,0.21-0.11,0.45,0,0.67l2.21,4.43c0.22,0.44,0.84,0.65,1.37,0.47l9.43-3.22l3.74,7.49L247.15,262.38z"/>
						</g>
						<path class="st8" d="M236.44,252.66l21.1-7.21c0.62-0.21,0.91-0.8,0.66-1.31l-1.56-3.14c-0.26-0.51-0.96-0.76-1.58-0.54
							l-21.1,7.21c-0.62,0.21-0.91,0.8-0.66,1.31l1.56,3.14C235.11,252.63,235.82,252.87,236.44,252.66z"/>
					</g>
					<path class="st15" d="M251.93,265.56c0.03-0.36-0.56-1.34-0.56-1.34c0.02-0.68-1.11-1.45-1.11-1.45s0.49-1.02-0.34-1.39
						c-0.52-0.23-1.4,0.31-1.96,0.74c-0.9,0.46-1.59,0.83-1.59,0.83s0.26-2.36-0.61-2.47c-0.67-0.08-2.3,2.49-3.01,3.67
						c-0.03,0.01-0.06,0.02-0.09,0.04l-0.08,0.04c-3.13,1.52-6.36,3.05-9.6,4.47c-3.25,1.45-6.5,2.85-9.8,4.18
						c-5.64,2.27-11.37,4.39-17.13,6.1c-2.42-1.75-4.78-3.58-7.09-5.48c-1.05-0.85-2.07-1.72-3.09-2.59
						c-1.72,1.14-3.42,2.3-5.09,3.49c-0.82,0.76-1.63,1.51-2.44,2.26c-0.64,0.6-1.26,1.2-1.89,1.81c1.22,0.96,2.45,1.91,3.71,2.83
						c0.46,0.34,0.93,0.67,1.4,1.01c2.48,1.76,5.02,3.49,7.67,5.11c0.23,0.14,0.45,0.27,0.68,0.41c2.1,1.25,4.85,1.53,7.23,0.69
						c0.01,0,0.03-0.01,0.04-0.01c2.87-1.03,5.68-2.12,8.41-3.29c0.71-0.31,1.4-0.61,2.1-0.94c1.72-0.74,3.36-1.56,5.04-2.34
						c1.64-0.82,3.28-1.65,4.89-2.5c6.38-3.37,12.41-6.98,18.28-10.97c0,0,0.01,0,0.01-0.01c1.31-0.23,3.63-0.65,4.95-1.04
						c0,0,0,0,0,0c0.68-0.09,1.36-0.22,1.6-0.4C253.04,266.65,251.93,265.56,251.93,265.56z M248.69,266.41c0,0,0.05-0.01,0.09-0.01
						l0.01,0.01C248.74,266.41,248.69,266.41,248.69,266.41z"/>
				</g>
				<g>
					<polygon class="st11" points="197.54,272.35 188.79,280.3 191.45,282.26 					"/>
					<path class="st16" d="M201.61,281.36c0,0,3.49-2.02,4.54-2.34"/>
					<path class="st16" d="M207.86,288.23c0,0,26.9-11.55,38.28-19.82l2.7-0.54"/>
				</g>
				<g>
					<path class="st6" d="M188.26,280.9l-15.29-13.64c0,0-2.93-5.61,1.78-8.25c4.7-2.64,9.37,0.25,11.15,1.96
						s11.94,11.19,11.94,11.19L188.26,280.9z"/>
					<g>
						<polyline class="st16" points="175.14,269.38 188.16,281.06 188.86,280.41 						"/>
						<line class="st16" x1="186.06" y1="279.16" x2="196.35" y2="271.07"/>
					</g>
				</g>
			</g>
		</g>
		<g>
			<g>
				<path class="st15" d="M197.99,236.42c-1.15-4.31-6.41-6.96-11.57-5.83c-4.77,1.04-7.68,4.93-6.85,8.84
					c-0.07,0.02-0.13,0.03-0.2,0.05c-1.34,0.45-1.99,1.72-1.44,2.83c0.49,0.99,2.23,2.13,3.55,2.05c0.75,1.59,1.53,2.95,2.3,3.73
					c1.83,1.87,4.78,2.66,6.85,2.99c1.55,0.25,3.15-0.1,4.36-0.95c1.11-0.78,2.45-1.92,3.32-3.33c0.4-0.63,0.7-1.32,0.85-2.06
					c0.08-0.39,0.1-0.85,0.09-1.36C199.2,241.51,198.66,238.91,197.99,236.42z"/>
				<g>
					<g>
						<path class="st11" d="M192.3,240.77c0.2,0.72,0.49,1.28,0.68,2c0.06,0.34,0.21,0.76-0.02,1.22c-0.25,0.43-0.66,0.52-1.02,0.59
							c0.25-0.28,0.51-0.55,0.56-0.79c0.05-0.22-0.05-0.53-0.14-0.87c-0.08-0.33-0.17-0.68-0.21-1.05
							C192.11,241.51,192.14,241.11,192.3,240.77z"/>
					</g>
					<g>
						<g>
							<path class="st11" d="M189.96,239.07c-0.47-0.03-0.96-0.06-1.43-0.01c-0.46,0.07-0.89,0.24-1.25,0.58l-0.01,0.01
								c-0.05,0.05-0.14,0.05-0.19,0c-0.04-0.04-0.05-0.11-0.02-0.16c0.14-0.24,0.32-0.48,0.56-0.64c0.24-0.17,0.51-0.28,0.79-0.35
								c0.56-0.13,1.13-0.11,1.67,0.11c0.13,0.05,0.19,0.2,0.14,0.32c-0.04,0.1-0.14,0.16-0.25,0.16L189.96,239.07z"/>
						</g>
						<g>
							<path class="st11" d="M194.64,238.6c0.54-0.21,1.11-0.24,1.67-0.11c0.28,0.07,0.55,0.18,0.79,0.35
								c0.24,0.16,0.42,0.4,0.56,0.64c0.04,0.06,0.02,0.15-0.05,0.18c-0.05,0.03-0.12,0.02-0.16-0.02l-0.01-0.01
								c-0.36-0.34-0.79-0.52-1.25-0.58c-0.46-0.05-0.95-0.02-1.43,0.01l-0.03,0c-0.14,0.01-0.25-0.1-0.26-0.23
								C194.48,238.73,194.54,238.64,194.64,238.6z"/>
						</g>
					</g>
					<g>
						<path class="st11" d="M196.59,241.78c0,0.62-0.38,1.12-0.84,1.12c-0.46,0-0.84-0.5-0.84-1.12c0-0.62,0.38-1.12,0.84-1.12
							C196.22,240.66,196.59,241.16,196.59,241.78z"/>
						<path class="st11" d="M189.82,241.78c0,0.62-0.38,1.12-0.84,1.12c-0.46,0-0.84-0.5-0.84-1.12c0-0.62,0.38-1.12,0.84-1.12
							C189.45,240.66,189.82,241.16,189.82,241.78z"/>
					</g>
					<g>
						<g>
							<path class="st11" d="M192.14,247.34c-0.21,0.1-0.44,0.1-0.67,0.13c-0.22-0.03-0.47-0.03-0.66-0.17
								c0.23,0.01,0.44,0.04,0.66,0.01C191.69,247.34,191.91,247.3,192.14,247.34z"/>
						</g>
						<g>
							<path class="st11" d="M193.72,246.12c-0.49,0.51-1.18,0.82-1.92,0.87c-0.37,0.01-0.74-0.07-1.06-0.25
								c-0.33-0.16-0.58-0.43-0.78-0.72c0.29,0.2,0.57,0.4,0.88,0.5c0.31,0.11,0.63,0.19,0.96,0.16
								C192.45,246.67,193.09,246.42,193.72,246.12z"/>
						</g>
					</g>
					<path class="st11" d="M188.97,245.72c0,0-0.08-1.22,3.09-1.17c0,0,2.11,0.05,2.48,1.22C194.54,245.77,193,246.83,188.97,245.72
						z"/>
				</g>
			</g>
			<path class="st11" d="M180.88,235.21c-0.02,0-0.05-0.01-0.07-0.01c-2.05-0.41-4.23,0.5-4.91,2.16c-0.06,0.14-0.11,0.29-0.16,0.43
				c-0.76,2.39-0.08,5.03,1.66,7.06c1.44,1.67,3.55,2.91,5.9,3.58v-0.89c-0.62-0.8-1.23-1.91-1.83-3.18
				c-1.33,0.09-3.06-1.05-3.54-2.04c-0.34-0.69-0.22-1.44,0.24-2.02c0.57-0.71,1.79-0.82,2.65-0.36c0.56,0.3,1.04,0.72,1.25,1.29
				c0,0,1.12,0.16,1.51-0.22c0.21-0.2-0.02-1.59-0.05-2.94C183.51,236.73,182.45,235.53,180.88,235.21z"/>
			<path class="st11" d="M200.63,238.28c0.01-0.18,0-0.35-0.01-0.52c-0.01-0.12-0.01-0.23-0.02-0.36c0-0.03-0.01-0.05-0.01-0.08
				c0-0.03-0.01-0.06-0.01-0.09c-0.41-3-3.14-2.21-3.14-2.21c0.21,0.35,0.47,1.07,0.47,1.07s1.31,5.42,1.35,7.28
				c0.02,0.3,0,0.59-0.03,0.85c0.43-0.86,0.74-1.76,0.92-2.68c0.15-0.78,0.34-1.65,0.44-2.49
				C200.61,238.81,200.63,238.56,200.63,238.28z"/>
		</g>
	</g>
</g>
<g>
	<g>
		<g>
			<polygon class="st8" points="451.71,417.83 444.89,425.4 451.98,425.4 			"/>
			<polygon class="st8" points="507.58,417.83 514.4,425.4 507.31,425.4 			"/>
			<rect x="451.71" y="417.83" class="st8" width="55.9" height="24.73"/>
			<polygon class="st8" points="511.43,427.99 447.89,427.99 451.71,417.83 507.61,417.83 			"/>
		</g>
		<g>
			<polygon class="st11" points="507.56,417.92 510.52,425.35 512.99,425.35 			"/>
			<polygon class="st11" points="507.56,427.96 451.7,427.96 451.7,431.64 			"/>
		</g>
	</g>
	<g>
		<g>
			<g>
				<path class="st11" d="M383.56,416.45l3.17,6.3h-8.25H373h-12.64c0,0-2.9,3.64-5.77,8.12c-4.4,6.87-0.68,15.38,8.02,18.29
					c10.67,3.58,22.72,2.6,32.32-2.51c17.51-3.81,39.71-9.84,46.29-17.01C449.68,420.42,383.56,416.45,383.56,416.45z"/>
				<g>
					<path class="st17" d="M386.38,423.11c0,0-3.52,11.67,3.95,13.07c7.47,1.4,34.96-5.72,33.98-12.49"/>
					<line class="st17" x1="389.34" y1="422.64" x2="408.66" y2="420.42"/>
					<path class="st17" d="M364.39,432.56l11.98,0.35c0,0,0.42,12.14-5.08,12.49C365.8,445.76,361.43,441.67,364.39,432.56z"/>
					<path class="st17" d="M360.02,424.98c0,0,13.39,1.52,25.66,0.7"/>
				</g>
			</g>
			<path class="st7" d="M407.78,448.28c-3.88-0.23-4.81-4.61-1.27-5.93c7.41-2.77,17.26-6,20.47-4.88
				C431.36,438.99,421.98,449.11,407.78,448.28z"/>
		</g>
		<g>
			<g>
				<g>
					<path class="st18" d="M420.78,388.93c-0.6-2.07-1.25-4.2-1.51-5c-0.05-0.11-0.08-0.24-0.12-0.35
						c-0.58-1.63-1.15-3.25-1.78-4.86c-2.43-6.37-5.29-12.49-8.67-18.59c0.11-1.7,0.29-5.46-0.26-5.53
						c-0.72-0.1-1.57,2.57-1.57,2.57s0.5-4.65-0.51-4.63c-1.01,0.02-1.18,3.89-1.18,3.89s-1.28-4.74-2.06-4.32
						c-0.78,0.43,0.1,4.16,0.1,4.16s-2.12-4.23-2.8-3.82c-0.68,0.41,1.51,5.77,1.51,5.77s-2.87-0.86-3.24-0.16
						c-0.29,0.55,2.5,2.66,3.77,3.59c0,0,0,0.01,0,0.01c0,0.03,0.02,0.04,0.02,0.07l0.02,0.08c1.03,3.08,2.06,6.26,2.96,9.43
						c0.91,3.17,1.76,6.33,2.52,9.51c0.41,1.7,0.78,3.4,1.13,5.1c-5.21,0.77-10.54,1.25-15.9,1.57c-1.27,0.07-2.55,0.12-3.83,0.18
						c0.29,2.72,0.46,5.44,0.53,8.2c0.03,1.12,0.12,2.23,0.23,3.34c1.47-0.12,2.95-0.23,4.42-0.39c4.11-0.45,8.22-0.99,12.32-1.72
						c1.32-0.24,2.62-0.49,3.94-0.77c1.31-0.27,3.69-0.86,5.92-1.43C419.76,394.04,421.52,391.47,420.78,388.93z"/>
					<path class="st19" d="M409.04,385.72c0,0,0.63,3.76,1.48,5.08"/>
				</g>
				<path class="st9" d="M392.3,399.29c0,0-23.97,3.62-28.9-1.87c-4.93-5.49,2.96-9.81,4.51-9.92c1.55-0.12,22.98-0.23,22.98-0.23
					L392.3,399.29z"/>
			</g>
			<g>
				<path class="st18" d="M377.15,386.2v-10.78h-10.23v10.78c0,1.3-1.08,2.46-2.64,2.46l-0.79,0.13
					c14.73,10.07,16.61-0.24,16.61-0.24h-0.1C378.42,388.55,377.15,387.49,377.15,386.2z"/>
				<path class="st11" d="M377.15,382.02v2.48c-1.18-0.45-2.33-1.08-3.27-1.95c-0.41-0.38-0.81-0.88-1.22-1.5
					c1.39,0.5,2.79,0.78,3.96,0.92C376.79,382.01,376.96,382.02,377.15,382.02z"/>
			</g>
			<path class="st9" d="M366.18,387.87c0,0,12.45,0.1,14,0.68c1.55,0.58,8.74,6.3,9.73,9.81c0.99,3.5-5.08,13.89-4.37,15.88
				c0.7,1.98,3.44,8.52,3.44,8.52h-29.66c0,0,3.81-12.14,0.28-19.38C356.07,396.14,356.98,388.13,366.18,387.87z"/>
			<g>
				<path class="st18" d="M471.89,425.74c-0.11-0.69-6.85-1.62-6.85-1.62s2.27-1.69,1.7-2.29c-0.45-0.47-4,0.56-5.59,1.05
					c-0.03-0.01-0.06-0.02-0.09-0.02l-0.1-0.02c-3.77-0.7-7.65-1.46-11.43-2.3c-3.8-0.83-7.58-1.7-11.32-2.65
					c-7.46-1.89-14.8-4.03-21.66-6.64c-6.79-2.61-13.29-5.91-19.61-9.51c-2.11-1.19-4.18-2.44-6.24-3.7
					c-0.43,0.67-0.87,1.33-1.28,1.99c-1.69,2.71-3.36,5.66-5.26,8.47c1.74,0.96,3.51,1.9,5.3,2.8c3.55,1.78,7.17,3.47,10.92,5.02
					c3.77,1.52,7.61,2.95,11.6,4.14c3.96,1.17,7.93,2.22,11.93,3.04c1.99,0.45,4,0.81,5.99,1.2c2,0.35,4.01,0.7,6.01,1
					c7.94,1.22,15.83,2.05,23.91,2.47c1.77,0.89,5.65,2.78,5.99,2.41c0.44-0.48-2-2.36-2-2.36s4.72,2.57,5.17,1.82
					c0.45-0.75-3.58-2.7-3.58-2.7s5.66,1.3,5.57,0.53c-0.09-0.77-4.47-1.89-4.47-1.89S472,426.43,471.89,425.74z"/>
				<g>
					<path class="st9" d="M388.5,411.55c0,0-24.53-9.11-22.27-17.86s11.84-4.79,15.37-1.63c3.52,3.15,15.35,9.69,15.35,9.69
						L388.5,411.55z"/>
					<g>
						<path class="st19" d="M386.42,410.85c0,0-15.12-7.35-19.35-11.82"/>
						<line class="st19" x1="391.81" y1="398.68" x2="380.39" y2="391.15"/>
					</g>
				</g>
			</g>
		</g>
		<g>
			<g>
				<path class="st18" d="M386.98,373.85c-0.16-0.19-0.39-0.32-0.6-0.47c-0.49-0.35-0.84-0.78-1.11-1.27
					c-0.28-1.79-0.85-3.93-1.51-6.02c-1.44-4.56-7.18-7.21-12.63-5.83c-5.44,1.38-8.43,6.22-6.55,10.67c1.4,3.3,3.07,6.66,4.59,8.1
					c2.04,1.93,5.23,2.68,7.45,2.96c1.67,0.21,3.36-0.21,4.6-1.16c1.15-0.87,2.52-2.13,3.38-3.67c0.24-0.43,0.43-0.88,0.58-1.36
					c0.53-0.34,1.05-0.68,1.58-1.01c0.13-0.08,0.26-0.17,0.33-0.29C387.22,374.29,387.14,374.04,386.98,373.85z"/>
				<g>
					<g>
						<path class="st20" d="M380.65,375.28c0,1.09-1.07,1.97-2.38,1.97c-1.31,0-2.38-0.88-2.38-1.97s1.07-1.97,2.38-1.97
							C379.58,373.31,380.65,374.19,380.65,375.28z"/>
					</g>
					<g>
						<g>
							<path class="st11" d="M382.45,369.01c-0.51-0.03-1.03-0.07-1.52-0.01c-0.49,0.07-0.95,0.26-1.33,0.62l-0.01,0.01
								c-0.06,0.05-0.15,0.05-0.2,0c-0.05-0.05-0.05-0.12-0.02-0.17c0.15-0.26,0.34-0.51,0.6-0.69c0.25-0.18,0.55-0.3,0.85-0.38
								c0.6-0.14,1.21-0.11,1.78,0.11c0.14,0.05,0.2,0.21,0.15,0.34c-0.04,0.11-0.15,0.17-0.26,0.17L382.45,369.01z"/>
						</g>
					</g>
					<g>
						<g>
							<path class="st11" d="M381.67,377.61c-0.24,0.03-0.47-0.05-0.7-0.1c-0.21-0.1-0.45-0.19-0.59-0.4
								c0.22,0.09,0.42,0.19,0.65,0.24C381.23,377.46,381.45,377.5,381.67,377.61z"/>
						</g>
						<g>
							<path class="st11" d="M383.83,376.95c-0.67,0.33-1.45,0.41-2.2,0.24c-0.37-0.12-0.73-0.31-0.99-0.6
								c-0.27-0.28-0.4-0.66-0.47-1.02c0.2,0.31,0.37,0.63,0.64,0.84c0.26,0.22,0.56,0.38,0.9,0.46
								C382.37,377.06,383.1,377.02,383.83,376.95z"/>
						</g>
					</g>
					<g>
						<path class="st11" d="M382.74,372.28c-0.54-0.15-1.01-0.22-1.49-0.2c-0.48,0.01-0.94,0.13-1.5,0.26
							c0.17-0.23,0.39-0.41,0.64-0.54c0.25-0.15,0.54-0.2,0.83-0.22C381.82,371.56,382.42,371.8,382.74,372.28z"/>
					</g>
				</g>
			</g>
			<path class="st11" d="M384.83,363.59c-0.56-1.81-1.91-3.45-3.81-4.43c-1.1-0.57-2.35-0.92-3.64-1.11
				c-2.99-0.45-6.17,0.03-8.81,1.29c-0.91,0.43-1.76,0.95-2.55,1.51c-1.01,0.71-1.96,1.48-2.74,2.38c-1.34,1.55-1.66,3.61-2.06,5.49
				c-0.59,2.84-2.06,5.49-3.69,8.04c-0.73,1.16-1.51,2.31-1.96,3.57c-0.46,1.26-0.58,2.65,0.02,3.87c0.63,1.3,2.06,2.3,3.69,2.72
				c1.17,0.3,4.62,0.46,6.86,0.63c1.9,0.14,3.85-0.21,5.35-1.18c6-3.85-2.23-11.53-2.23-11.53c-4.93-2.98-0.78-4.9-0.78-4.9
				c1,0.1,1.95,0.11,2.86,0.06c0.44,0.54,0.91,1.44,0.66,2.74c0,0,2.18-1.82,2.88-3.26c4.78-1.19,7.81-3.92,8.42-4.5
				c0.18,0.36,0.35,0.73,0.47,1.12c0.27,0.84,0.52,1.7,0.74,2.54C385.2,367.02,385.34,365.25,384.83,363.59z"/>
		</g>
	</g>
</g>
<g>
	<g>
		<g>
			<polygon class="st0" points="655.33,264.04 598.14,264.04 598.14,209.58 641.21,209.58 655.33,222.31 			"/>
			<polygon class="st0" points="641.21,209.58 637.28,222.46 655.33,222.31 			"/>
		</g>
		<polyline class="st4" points="641.02,209.47 637.34,222.54 655.23,222.44 		"/>
	</g>
	<g>
		<path class="st7" d="M179.38,107.18c4.02-1.01,8.15-0.56,11.58,1l-11.07-30.29l-33.43,8.38c0.22-1.62,0.06-3.31-0.55-4.97
			c-2.4-6.56-10.77-10.27-18.7-8.29c-7.93,1.99-12.41,8.92-10.01,15.48c0.61,1.66,1.6,3.14,2.87,4.39l-33.43,8.38l11.07,30.29
			c1.81-2.86,4.94-5.14,8.97-6.14c7.92-1.98,16.29,1.72,18.68,8.28c2.4,6.57-2.08,13.5-10,15.48c-4.02,1.01-8.15,0.55-11.58-1
			l11.07,30.29l33.43-8.38c-0.22,1.62-0.06,3.31,0.55,4.97c2.4,6.56,10.77,10.27,18.69,8.29c7.93-1.99,12.41-8.92,10.01-15.48
			c-0.61-1.66-1.6-3.14-2.87-4.39l33.43-8.38l-11.07-30.29c-1.81,2.86-4.94,5.14-8.97,6.14c-7.92,1.98-16.3-1.72-18.7-8.29
			C166.97,116.1,171.46,109.17,179.38,107.18z"/>
		<g>
			<line class="st4" x1="116.64" y1="174.45" x2="146.24" y2="167.26"/>
			<line class="st4" x1="149.39" y1="89.17" x2="178.6" y2="81.49"/>
		</g>
	</g>
</g>
<g>
	<g>
		<g>
			<path class="st21" d="M604.18,429.77l0.98,12.62l5.29-0.22c0,0,1.43-5.14,3-12.4H604.18z"/>
			<path class="st11" d="M605.03,441.17c0,0,3.24,1.77,5.68,0l0.52,1.17c0.45,1.03,0.68,2.11,0.68,3.2l0,0.33l-16.99,0.01l0,0
				c0-1.01,0.77-1.92,1.92-2.27L605.03,441.17z"/>
		</g>
		<g>
			<path class="st21" d="M630.77,429.77l1.62,12.74l5.28-0.33c0,0,1.18-5.12,2.46-12.4H630.77z"/>
			<path class="st11" d="M632.33,441.15c0,0,3.24,1.77,5.68,0l0.52,1.17c0.45,1.03,0.68,2.11,0.68,3.2l0,0.33l-16.99,0l0,0
				c0-1.01,0.77-1.92,1.92-2.26L632.33,441.15z"/>
		</g>
	</g>
	<g>
		<g>
			<path class="st21" d="M599.7,303.67c-0.2,0.39-0.39,0.79-0.59,1.19c-2.84,5.5-6.01,10.84-9.83,15.75
				c-3.87,4.94-8.41,9.71-13.2,14.33c-2.4,2.31-4.88,4.58-7.4,6.83c-2.5,2.25-5.13,4.47-7.7,6.6l-0.07,0.06c-1.2,0.99-1.2,2.6,0,3.6
				c1.08,0.89,2.77,0.98,3.97,0.26c6.27-3.75,12.12-7.75,17.77-12.09c1.42-1.08,2.79-2.19,4.18-3.31c1.35-1.14,2.73-2.27,4.04-3.46
				c2.68-2.32,5.2-4.81,7.65-7.4c2.45-2.61,4.64-5.36,6.72-8.13c2.04-2.79,3.9-5.65,5.64-8.55c0.47-0.79,0.91-1.6,1.36-2.4
				C608,306.03,603.8,304.99,599.7,303.67z"/>
			<path class="st21" d="M561.62,348.36c0,0-5.76,0.9-5.85,1.62c-0.09,0.72,2.75,1.12,2.75,1.12s-4.8,3.55-4.47,4.15
				c0.33,0.59,4.43-2.06,4.43-2.06s-2.81,2.72-2.41,3.37c0.4,0.65,4.11-2.75,4.11-2.75s-2.02,3.24-1.21,3.65
				c0.81,0.41,3.01-3.6,3.01-3.6s-0.8,2.51-0.16,2.71c0.64,0.2,3.73-5.14,3.73-5.14L561.62,348.36z"/>
			<path class="st8" d="M618.58,295.33c-0.12,0.28-0.23,0.55-0.35,0.83c-2.58,5.91-6.62,13.06-6.62,13.06l-0.55-0.17l-3.83-1.21
				l-2.1-0.67h-0.01l-0.09-0.03l-6.1-1.93l-0.54-0.17c0,0,0.84-1.66,1.96-3.96c0.01-0.01,0.01-0.01,0.01-0.01
				c0.77-1.58,1.66-3.44,2.52-5.28c0.08-0.18,0.17-0.37,0.26-0.55c0.28-0.61,0.55-1.22,0.81-1.8c0.01-0.01,0.03-0.03,0.03-0.04
				c0.4-0.89,0.77-1.74,1.06-2.48c0.28-0.66,0.5-1.24,0.67-1.72c0.5-1.49,1.57-2.59,2.8-3.4c1.69-1.12,3.69-1.71,4.94-2.02
				c0.03-0.01,0.05-0.01,0.08-0.02c0.01,0,0.03,0,0.03-0.01c0.29-0.07,0.55-0.13,0.74-0.18c0.01,0,0.03-0.01,0.04-0.01
				c0.03-0.01,0.06-0.01,0.1-0.02h0.04c1.51-0.17,4.18,2.07,5.46,4.73c0.01,0.02,0.01,0.03,0.01,0.04c0.09,0.17,0.17,0.34,0.23,0.51
				c0.01,0.02,0.01,0.04,0.03,0.06C620.59,289.86,619.8,292.38,618.58,295.33z"/>
		</g>
		<g>
			<path class="st21" d="M627.47,284.18c-1.04,1.27-2.05,2.24-3.02,2.95c-0.51,0.38-1.02,0.68-1.51,0.92
				c-0.46,0.23-0.92,0.4-1.36,0.53c-0.49,0.13-0.95,0.2-1.41,0.23c-0.13,0.01-0.27,0.01-0.4,0.01c-0.63,0-1.22-0.08-1.77-0.25
				c-0.86-0.23-1.64-0.61-2.33-1.08c-0.04-0.01-0.06-0.03-0.09-0.05c-0.75-0.51-1.38-1.08-1.89-1.61c-0.26-0.28-0.49-0.54-0.67-0.77
				c-0.27-0.32-0.45-0.57-0.55-0.72c-0.06-0.1-0.1-0.15-0.1-0.15h0.09c0.1,0,0.2,0,0.29-0.01c0.61-0.06,1.15-0.29,1.56-0.61
				c0.05-0.03,0.09-0.06,0.13-0.11l0.01-0.01c0.42-0.39,0.68-0.91,0.68-1.47V271.8h9.65v2.87c0,0.01,0,0.01,0,0.01v7.28
				c0,0.41,0.14,0.81,0.38,1.14c0.18,0.25,0.43,0.48,0.73,0.65c0.19,0.13,0.42,0.22,0.65,0.29
				C626.84,284.14,627.15,284.18,627.47,284.18z"/>
			<path class="st11" d="M624.79,274.69v0.25c-0.45,0.78-0.91,1.43-1.36,1.88c-1.83,1.89-4.8,2.67-6.88,3.01
				c-0.47,0.07-0.93,0.1-1.41,0.06v-1.68c0.73,0.15,1.51,0.18,2.26,0.05c2.09-0.33,5.05-1.12,6.9-3.01
				C624.46,275.09,624.63,274.9,624.79,274.69z"/>
		</g>
		<g>
			<path class="st8" d="M630.68,306.39c-0.73,2.42-1.09,4.37-0.55,5.3c1.59,2.72,2.9,5.18,2.9,5.18h-30.72c0,0,1.68-1.63,3.07-3.88
				c0.65-1.06,1.25-2.25,1.59-3.46v-0.01c0.15-0.55,0.26-1.11,0.27-1.67c0.04-0.73-0.05-1.44-0.32-2.13
				c-0.01-0.03-0.03-0.06-0.04-0.1c-1.52-3.73-3.62-6.88-3.97-9.53c-0.01-0.11-0.03-0.2-0.03-0.3c-0.06-0.68,0.01-1.32,0.24-1.94
				c0.31-0.81,1-1.83,1.91-2.93c1.28-1.54,2.99-3.21,4.7-4.61c0.26-0.21,0.51-0.41,0.75-0.59c0.69-0.53,1.36-1,2-1.39
				c0.09-0.05,0.19-0.11,0.28-0.16c0.26-0.16,0.51-0.29,0.75-0.41c0.01,0,0.03,0,0.03-0.01c0.08-0.03,0.14-0.06,0.2-0.08l0.04-0.02
				l0.69-0.26l-0.01,0.06v0.1c-0.05,0.57-0.09,2.59,1.16,3.9c0.01,0.02,0.03,0.03,0.05,0.05c0.49,0.51,1.18,0.9,2.15,1.06
				c0.06,0.01,0.13,0.02,0.18,0.02c0.68,0.08,1.32-0.03,1.93-0.26c0.03-0.01,0.05-0.02,0.06-0.03c2.74-1.09,4.84-4.65,5.11-5.12
				l-0.01,0.05c-0.04,0.17,0.01,0.48,0.74,0.69c0.18,0.06,0.42,0.11,0.72,0.15c0.31,0.03,0.67,0.06,1.11,0.06
				c0.1,0.01,0.2,0.01,0.32,0.01c1.11,0,2.21,0.19,3.19,0.64c1.91,0.88,4.56,2.78,4.25,6.46c0,0.08-0.01,0.17-0.03,0.26
				c-0.43,3.51-2.74,8.95-4.24,13.4c-0.06,0.22-0.14,0.43-0.2,0.66C630.86,305.83,630.77,306.11,630.68,306.39z"/>
			<g>
				<path class="st11" d="M641.25,395.4c2.93,12.14,2.09,26.26,0.64,36.82h-13.88l-9.08-74.39l-0.04-0.34l-0.03,0.37l-2.99,37.65
					c2.23,10.13,0.6,25.36-1.24,36.71h-12.5c-1.46-19.85-4.02-54.45-5.66-75.21c0-0.04-0.01-0.07-0.01-0.12
					c-0.28-3.62-0.55-6.82-0.77-9.44c-0.26-3.12-0.46-5.4-0.6-6.63c-0.37-3.37,0.33-7.36,1.51-11.37c0.2-0.7,0.42-1.4,0.65-2.09
					c0.93-2.84,2.06-5.62,3.16-8.13c0.28-0.64,0.55-1.24,0.83-1.83c0.79-1.76,1.56-3.34,2.19-4.63c0.75-1.58,1.32-2.73,1.52-3.32
					c0.19-0.55,0.2-1.36,0.09-2.32c0-0.03-0.01-0.07-0.01-0.11v-0.01c-0.08-0.58-0.19-1.23-0.35-1.9c-0.38-1.66-0.95-3.51-1.5-5.1
					c-0.44-1.3-0.52-2.65-0.27-3.94c0.06-0.29,0.13-0.57,0.23-0.85c0.19-0.63,0.46-1.23,0.81-1.8c0.01-0.01,0.03-0.03,0.03-0.04
					c0.26-0.41,0.55-0.82,0.88-1.2l5.08-5.85l0.55-0.64l1.04-1.2l0.86-0.34h0.01l1.05-0.4l0.31-0.12l0.04-0.02l0.69-0.26l-0.01,0.06
					l-0.01,0.01l-0.03,0.08l-0.73,2.29l-0.37,1.18l-2.47,7.76l7.72,0.57l1.1,0.08l2.94-6.64l0.32-0.72l2.16-4.84l0.01-0.05
					l0.03-0.05l0.04,0.01l2.52,0.86l-0.03,0.14l-0.28,1.25l-0.9,4.15l-1.56,7.21l4.81,8.1l0.42,0.7l0.51,0.88l3.29,5.53
					c0,0,0.38,0.95,1.13,2.74c1.68,4.02,5.11,12.22,9.84,23.23C651.77,353.79,641.25,395.4,641.25,395.4z"/>
				<g>
					<polyline class="st13" points="613.3,284.3 609.25,295.57 620.5,296.3 626.03,283.48 					"/>
					<line class="st13" x1="614.58" y1="359.94" x2="623.66" y2="355.53"/>
					<line class="st13" x1="616.85" y1="328.98" x2="639.94" y2="328.98"/>
					<path class="st13" d="M632.54,329.06c0,0,0.79,14.54,9.96,15.28"/>
					<path class="st13" d="M636.68,329.06c0,0,6.41,11.44,6.02,17.81c-0.39,6.37-4.93,49.42-4.93,49.42v33.89"/>
					<path class="st13" d="M616.16,358.96l-2.27,36.52c0,0-0.58,17.57-1.96,35.23"/>
				</g>
			</g>
		</g>
		<g>
			<g>
				<g>
					<polygon class="st22" points="629.98,338.9 543.46,385.37 487.34,313.73 573.85,267.25 					"/>
					<g>
						<polygon class="st0" points="570.91,278.7 616.15,336.45 546.41,373.92 501.16,316.16 						"/>
						<path class="st3" d="M607.95,325.98l8.2,10.47l-69.75,37.47l-12.31-15.71c2.42-6.04,6.9-11.58,13.45-14.84
							c5.53-2.77,12.05-3.73,18.41-4.65C576.98,337.12,594.93,329.36,607.95,325.98z"/>
						<path class="st8" d="M565.54,305.48c2.69,3.43,1.51,8.02-2.64,10.24c-4.14,2.23-9.68,1.25-12.37-2.18s-1.51-8.02,2.64-10.24
							C557.31,301.07,562.85,302.04,565.54,305.48z"/>
					</g>
				</g>
				<polygon class="st16" points="573.9,267.23 487.41,313.72 543.25,385.46 630.06,339.05 				"/>
			</g>
			<g>
				<path class="st21" d="M622.97,304.06c0,1.35-0.01,2.71-0.05,4.05c-0.06,2.08-0.17,4.14-0.35,6.2
					c-4.12-0.16-8.29-0.46-12.45-0.84c-3.66-0.34-7.32-0.75-10.99-1.2c-3.66-0.44-7.36-0.99-10.92-1.54l-0.09-0.01
					c-0.03,0-0.05-0.01-0.08,0c0,0,0,0,0,0c-1.14-0.91-3.78-2.92-4.38-2.65c-0.77,0.35,0.44,2.51,0.44,2.51s-6.25-1.28-6.66-0.72
					c-0.41,0.56,4.56,1.87,4.56,1.87s-4.3-0.39-4.72,0.25c-0.42,0.64,5.06,1.26,5.06,1.26s-4.37,0.44-4.32,1.23
					c0.05,0.79,5.29,0.02,5.29,0.02s-2.95,0.87-2.79,1.42c0.13,0.42,4.34-0.01,6.27-0.23c0,0,0,0,0,0
					c7.17,2.13,14.37,3.86,21.79,5.26c1.88,0.37,3.77,0.68,5.67,0.99c1.89,0.29,3.79,0.59,5.71,0.81c0.5,0.07,0.99,0.13,1.5,0.18
					c1.24,0.15,3.09,0.32,4.96,0.47c3.84,0.31,7.35-1.85,8.03-4.99c0-0.02,0.01-0.04,0.01-0.05c0.27-1.35,0.51-2.71,0.69-4.05
					c0.3-1.88,0.52-3.75,0.71-5.62c0.12-1.24,0.19-2.49,0.26-3.73C631.71,305.04,627.18,304.73,622.97,304.06z"/>
				<path class="st8" d="M636.91,290.42c0,0.49-0.04,0.87-0.04,1.06c0,1.14-0.49,14.22-0.49,14.22l-0.31-0.01l-5.12-0.15l-0.79-0.03
					l-7.2-0.21l-0.4-0.01c0,0,1.5-9.2,3.44-15.87c0.43-1.54,0.91-2.94,1.38-4.06c0.2-0.47,0.4-0.88,0.6-1.24
					C636.09,284,636.89,288.28,636.91,290.42z"/>
			</g>
		</g>
	</g>
	<g>
		<g>
			<path class="st21" d="M630.19,269.44c-0.5,1-2.25,2.14-3.58,2.06c-0.59,1.26-1.2,2.38-1.82,3.18c0,0.01,0,0.01,0,0.01
				c-0.17,0.21-0.33,0.4-0.49,0.56c-1.84,1.89-4.81,2.68-6.9,3.01c-0.77,0.13-1.54,0.11-2.26-0.04c-0.77-0.16-1.5-0.47-2.11-0.91
				c-1.13-0.79-2.47-1.93-3.34-3.36c-0.41-0.64-0.7-1.32-0.86-2.08c-0.08-0.38-0.1-0.85-0.09-1.37c0.04-1.88,0.59-4.48,1.27-6.99
				c1.15-4.34,6.45-7,11.63-5.86c4.8,1.05,7.74,4.96,6.9,8.89c0.06,0.02,0.14,0.03,0.2,0.05
				C630.09,267.05,630.74,268.32,630.19,269.44z"/>
			<g>
				<g>
					<path class="st23" d="M618.66,272.09c0,1.03,1,1.86,2.24,1.86s2.24-0.83,2.24-1.86c0-1.03-1-1.86-2.24-1.86
						S618.66,271.07,618.66,272.09z"/>
					<path class="st23" d="M612.13,272.09c0,1.03-1,1.86-2.24,1.86c-0.06,0-0.13,0-0.19-0.01c-0.41-0.64-0.7-1.32-0.86-2.08
						c-0.08-0.38-0.1-0.85-0.09-1.37c0.33-0.17,0.72-0.26,1.14-0.26C611.13,270.24,612.13,271.06,612.13,272.09z"/>
				</g>
				<g>
					<path class="st11" d="M615.74,267.88c0.16,0.35,0.19,0.75,0.14,1.12c-0.03,0.37-0.13,0.72-0.21,1.06
						c-0.09,0.34-0.18,0.65-0.14,0.87c0.05,0.24,0.31,0.51,0.56,0.79c-0.36-0.07-0.77-0.16-1.02-0.6c-0.23-0.46-0.09-0.88-0.02-1.23
						C615.25,269.17,615.54,268.6,615.74,267.88z"/>
				</g>
				<g>
					<g>
						<path class="st11" d="M617.96,265.7c0.54-0.22,1.11-0.24,1.68-0.11c0.28,0.07,0.56,0.18,0.8,0.36
							c0.25,0.16,0.43,0.41,0.57,0.65c0.04,0.06,0.02,0.15-0.05,0.18c-0.05,0.03-0.12,0.02-0.16-0.02l-0.01-0.01
							c-0.36-0.34-0.79-0.52-1.26-0.59c-0.46-0.05-0.96-0.02-1.44,0.01l-0.03,0c-0.14,0.01-0.26-0.1-0.26-0.23
							C617.79,265.83,617.86,265.74,617.96,265.7z"/>
					</g>
					<g>
						<path class="st11" d="M613.25,266.18c-0.48-0.03-0.97-0.06-1.44-0.01c-0.46,0.07-0.9,0.24-1.26,0.59l-0.01,0.01
							c-0.05,0.05-0.14,0.05-0.19,0c-0.04-0.04-0.05-0.11-0.02-0.16c0.14-0.24,0.32-0.48,0.57-0.65c0.24-0.17,0.52-0.28,0.8-0.36
							c0.57-0.13,1.14-0.11,1.68,0.11c0.13,0.05,0.19,0.2,0.14,0.32c-0.04,0.1-0.14,0.16-0.25,0.16L613.25,266.18z"/>
					</g>
				</g>
				<g>
					<ellipse class="st11" cx="612.27" cy="268.9" rx="0.85" ry="1.13"/>
					<path class="st11" d="M618.23,268.9c0,0.62,0.38,1.13,0.85,1.13c0.47,0,0.85-0.51,0.85-1.13s-0.38-1.13-0.85-1.13
						C618.61,267.77,618.23,268.28,618.23,268.9z"/>
				</g>
				<g>
					<g>
						<path class="st11" d="M617.7,273.16c0.2-0.11,0.42-0.14,0.61-0.24c0.22-0.05,0.4-0.14,0.61-0.23
							c-0.13,0.2-0.36,0.28-0.56,0.37C618.14,273.11,617.93,273.18,617.7,273.16z"/>
					</g>
					<g>
						<path class="st11" d="M615.67,272.54c0.69,0.06,1.37,0.1,1.99-0.08c0.31-0.08,0.6-0.23,0.84-0.43
							c0.26-0.2,0.42-0.49,0.61-0.79c-0.06,0.34-0.18,0.69-0.44,0.96c-0.25,0.27-0.58,0.45-0.93,0.56
							C617.03,272.93,616.29,272.84,615.67,272.54z"/>
					</g>
				</g>
			</g>
		</g>
		<path class="st11" d="M639.68,281.58c-0.68-2.7-1.88-5.4-4.54-7.07c0.72-2.09,0.68-4.38-0.27-6.41c-0.95-2.02-2.61-3.85-5-4.73
			c0.26-1.55-5.7-10.93-17.75-6.61c-2.72,0.98-4,3.66-3.63,6.52c-1.89,1.39-2.89,3.49-3.07,5.57c-0.18,2.1,0.38,4.19,1.2,6.18
			c0.46,1.1,1.01,2.27,1.61,3.33c-0.99,0.73-1.56,1.81-1.66,2.9c-0.1,1.09,0.23,2.19,0.84,3.17c0.29,0.49,0.67,0.94,1.1,1.36
			c1.69-1.12,3.69-1.71,4.94-2.02l0.31-0.12l0.04-0.02c0.24-0.11,0.47-0.2,0.69-0.26l-0.01,0.06c0.42-0.39,0.68-0.91,0.68-1.47
			v-3.75c-0.77-0.16-1.5-0.47-2.11-0.91c-1.13-0.79-2.47-1.93-3.34-3.36c-0.41-0.64-0.7-1.32-0.86-2.08
			c-0.08-0.38-0.1-0.85-0.09-1.37c0.03-1.36,0.33-3.11,0.75-4.93c1.17,0.04,3.65-0.16,6.13-2.09c0,0,0.96,4.81,7.94,4.28
			c0,0-0.43,2.38,1.07,2.56c1.11,0.13,3.02-2.45,3.92-3.78c0.06,0.02,0.13,0.03,0.19,0.05c1.34,0.46,2,1.73,1.45,2.85
			c-0.5,1-2.25,2.14-3.58,2.06c-0.59,1.26-1.2,2.38-1.82,3.18c0,0.01,0,0.01,0,0.01v7.28c0,0.41,0.14,0.81,0.38,1.14l2.52,0.86
			l-0.03,0.14c0.1,0.01,0.2,0.01,0.32,0.01c8.1-0.12,8.89,4.16,8.92,6.3c1.46-1.66,2.79-3.44,3.07-5.46
			C640.14,283.83,639.96,282.7,639.68,281.58z"/>
	</g>
</g>
</svg>
